<svg xmlns="http://www.w3.org/2000/svg" width="24" height="24" viewBox="0 0 24 24">
  <defs/>
  <path d="M3,20 Q1,20 1,18 L1,7 Q1,5 3,5 L6.759,5 L7.673,3.124 Q8.221,2 9.471,2 L14.403,2 Q15.597,2 16.164,3.052 L17.213,5 L17.213,5 L21,5 Q23,5 23,7 L23,18 Q23,20 21,20 Z M3,19 L21,19 Q22,19 22,18 L22,7 Q22,6 21,6 L17.213,6 Q16.615,6 16.332,5.474 L15.283,3.526 Q15,3 14.403,3 L9.471,3 Q8.846,3 8.572,3.562 L7.658,5.438 Q7.385,6 6.759,6 L3,6 Q2,6 2,7 L2,18 Q2,19 3,19 Z"/>
  <path d="M17,12 Q17,14.071 15.536,15.536 Q14.071,17 12,17 Q9.929,17 8.464,15.536 Q7,14.071 7,12 Q7,9.929 8.464,8.464 Q9.929,7 12,7 Q14.071,7 15.536,8.464 Q17,9.929 17,12 Z M16,12 Q16,8 12,8 Q8,8 8,12 Q8,16 12,16 Q16,16 16,12 Z"/>
</svg>

