<svg xmlns="http://www.w3.org/2000/svg" width="24" height="24" viewBox="0 0 24 24">
  <defs/>
  <path d="M21.242,12.313 L12.756,20.799 Q10.999,22.556 8.514,22.556 Q6.028,22.556 4.271,20.799 Q2.514,19.041 2.514,16.556 Q2.514,14.071 4.271,12.313 L13.817,2.767 Q15.135,1.449 16.999,1.449 Q18.863,1.449 20.181,2.767 Q21.499,4.085 21.499,5.949 Q21.499,7.813 20.181,9.131 L12.049,17.263 Q11.171,18.142 9.928,18.142 Q8.685,18.142 7.807,17.263 Q5.685,15.142 7.807,13.021 L14.878,5.949 Q15.171,5.657 15.585,5.657 Q15.999,5.657 16.292,5.949 Q16.585,6.242 16.585,6.657 Q16.585,7.071 16.292,7.364 L9.221,14.435 Q8.928,14.728 8.928,15.142 Q8.928,15.556 9.221,15.849 Q9.514,16.142 9.928,16.142 Q10.342,16.142 10.635,15.849 L18.767,7.717 Q20.535,5.949 18.767,4.182 Q16.999,2.414 15.231,4.182 L5.685,13.728 Q4.514,14.899 4.514,16.556 Q4.514,18.213 5.685,19.384 Q8.514,22.213 11.342,19.384 L19.827,10.899 Q20.12,10.606 20.535,10.606 Q20.949,10.606 21.242,10.899 Q21.535,11.192 21.535,11.606 Q21.535,12.021 21.242,12.313 Z"/>
</svg>

