<svg xmlns="http://www.w3.org/2000/svg" width="24" height="24" viewBox="0 0 24 24">
  <defs/>
  <path fill="#F51026" d="M10.5,10 C10.776,10 11,10.224 11,10.5 L11,17.5 C11,17.776 10.776,18 10.5,18 C10.224,18 10,17.776 10,17.5 L10,10.5 C10,10.224 10.224,10 10.5,10 Z"/>
  <path fill="#F51026" d="M14,10.5 C14,10.224 13.776,10 13.5,10 C13.224,10 13,10.224 13,10.5 L13,17.5 C13,17.776 13.224,18 13.5,18 C13.776,18 14,17.776 14,17.5 L14,10.5 Z"/>
  <path fill="#F51026" d="M4.5,5 L9,5 C9,3.343 10.343,2 12,2 C13.657,2 15,3.343 15,5 L19.5,5 C19.776,5 20,5.224 20,5.5 C20,5.776 19.776,6 19.5,6 L18.941,6 L17.106,20.686 C17.012,21.437 16.374,22 15.617,22 L8.383,22 C7.626,22 6.988,21.437 6.894,20.686 L5.059,6 L4.5,6 C4.224,6 4,5.776 4,5.5 C4,5.224 4.224,5 4.5,5 Z M6.066,6 L7.887,20.562 C7.918,20.812 8.131,21 8.383,21 L15.617,21 C15.869,21 16.082,20.812 16.113,20.562 L17.934,6 Z M12,3 C10.895,3 10,3.895 10,5 L14,5 C14,3.895 13.105,3 12,3 Z"/>
</svg>

