<svg xmlns="http://www.w3.org/2000/svg" width="24" height="24" viewBox="0 0 24 24">
  <defs/>
  <path d="M3,2 L21,2 Q24,2 24,5 L24,18 Q24,21 21,21 L3,21 Q0,21 0,18 L0,5 Q0,2 3,2 Z M3,4 Q2,4 2,5 L2,18 Q2,19 3,19 L21,19 Q22,19 22,18 L22,5 Q22,4 21,4 Z"/>
  <path d="M17,12 Q14,12 14,9 Q14,6 17,6 Q18.243,6 19.121,6.879 Q20,7.757 20,9 Q20,12 17,12 Z M17,10 Q18,10 18,9 Q18,8 17,8 Q16,8 16,9 Q16,10 17,10 Z"/>
  <path d="M11.793,18.793 L16.16,14.426 Q17.426,13.16 18.824,14.278 L23.125,17.719 L21.875,19.281 L17.574,15.84 L17.574,15.84 L13.207,20.207 Z"/>
  <path d="M0.849,16.741 L7.146,11.343 Q8.552,10.138 9.862,11.448 L15.207,16.793 L13.793,18.207 L8.448,12.862 L8.448,12.862 L2.151,18.259 Z"/>
</svg>

