<svg xmlns="http://www.w3.org/2000/svg" width="24" height="24" viewBox="0 0 24 24">
  <defs/>
  <path d="M3,3 L21,3 Q23,3 23,5 L23,18 Q23,20 21,20 L3,20 Q1,20 1,18 L1,5 Q1,3 3,3 Z M3,4 Q2,4 2,5 L2,18 Q2,19 3,19 L21,19 Q22,19 22,18 L22,5 Q22,4 21,4 Z"/>
  <path d="M17,11 Q15,11 15,9 Q15,7 17,7 Q19,7 19,9 Q19,11 17,11 Z M17,10 Q18,10 18,9 Q18,8 17,8 Q16,8 16,9 Q16,10 17,10 Z"/>
  <path d="M12.146,19.146 L16.514,14.779 Q17.463,13.83 18.511,14.669 L22.812,18.11 L22.188,18.89 L17.887,15.45 Q17.537,15.17 17.221,15.486 L12.854,19.854 Z"/>
  <path d="M1.175,17.12 L7.472,11.723 Q8.526,10.819 9.508,11.801 L14.854,17.146 L14.146,17.854 L8.801,12.508 Q8.474,12.181 8.122,12.482 L1.825,17.88 Z"/>
</svg>

