<svg width="36" height="32" viewBox="0 0 36 32" fill="none" xmlns="http://www.w3.org/2000/svg">
<g clip-path="url(#clip0_29049_152478)">
<path d="M18.5508 9.55469L35.4035 19.2821L35.4007 20.8524L17.9581 31.1439L1.08984 21.4119L1.09298 19.6247L18.5508 9.55469Z" fill="#ADADAD"/>
<path d="M17.969 29.3475L35.403 19.2852L35.4162 20.8524L17.9648 31.1385L17.969 29.3475Z" fill="#707070"/>
<path d="M17.9559 29.357L17.9634 31.1472L1.09375 21.4199L1.09827 19.6406L17.9559 29.357Z" fill="black"/>
<path d="M5.10547 13.3239C5.10547 6.21989 10.8654 0.460938 17.9705 0.460938C25.0757 0.460938 30.8355 6.21989 30.8355 13.3239C30.8355 20.428 25.0757 26.1869 17.9705 26.1869C10.8654 26.1869 5.10547 20.428 5.10547 13.3239Z" fill="#ADADAD"/>
<path d="M6.95102 12.6092C7.04228 11.8917 7.40701 10.9022 8.22679 11.0356C8.8579 11.1384 8.9589 12.0231 8.9092 12.77C8.84883 13.6769 8.39524 14.349 7.83179 14.3001C7.2684 14.2511 6.8407 13.4766 6.95102 12.6092Z" fill="#707070" stroke="black" stroke-width="0.25" stroke-miterlimit="10" stroke-linecap="round" stroke-linejoin="round"/>
<path d="M15.0565 17.468C15.2143 16.5953 15.8911 15.987 16.5682 16.1094C17.2453 16.2318 17.6664 17.0385 17.5086 17.9112C17.3508 18.784 16.674 19.3922 15.9969 19.2698C15.3198 19.1474 14.8988 18.3407 15.0565 17.468Z" fill="#707070" stroke="black" stroke-width="0.25" stroke-miterlimit="10" stroke-linecap="round" stroke-linejoin="round"/>
<path d="M13.135 20.6406C13.135 20.6406 13.1885 19.7075 12.7062 18.8736C11.8741 17.4351 9.66406 16.3242 7.9585 17.7878" stroke="black" stroke-width="0.25" stroke-miterlimit="10" stroke-linejoin="round"/>
<path d="M1.09766 19.625L17.8776 29.3129L17.9625 29.3619" stroke="black" stroke-width="0.25" stroke-miterlimit="10" stroke-linecap="round" stroke-linejoin="round"/>
<path d="M1.09766 21.4141L17.9625 31.151" stroke="black" stroke-width="0.25" stroke-miterlimit="10" stroke-linecap="round" stroke-linejoin="round"/>
<path d="M17.9648 29.3653L35.4113 19.2891" stroke="black" stroke-width="0.25" stroke-miterlimit="10" stroke-linecap="round" stroke-linejoin="round"/>
<path d="M17.9648 31.152L35.4113 20.8555" stroke="black" stroke-width="0.25" stroke-miterlimit="10" stroke-linecap="round" stroke-linejoin="round"/>
<path d="M17.9693 31.1475L17.9648 31.1501V29.3594" stroke="black" stroke-width="0.25" stroke-miterlimit="10" stroke-linecap="round" stroke-linejoin="round"/>
<path d="M35.4102 19.2891V20.856" stroke="black" stroke-width="0.25" stroke-miterlimit="10" stroke-linejoin="round"/>
<path d="M1.09766 19.625V21.4157" stroke="black" stroke-width="0.25" stroke-miterlimit="10" stroke-linejoin="round"/>
<path d="M35.4075 19.2894L30.3867 16.3906" stroke="black" stroke-width="0.25" stroke-miterlimit="10" stroke-linecap="round" stroke-linejoin="round"/>
<path d="M1.09766 19.6236L5.73657 16.9453" stroke="black" stroke-width="0.25" stroke-miterlimit="10" stroke-linecap="round" stroke-linejoin="round"/>
<path d="M5.63751 16.9981C5.29137 15.8341 5.10547 14.6012 5.10547 13.3249C5.10547 6.22033 10.8648 0.460938 17.9694 0.460938C25.074 0.460938 30.8334 6.22033 30.8334 13.3249C30.8334 20.4295 25.074 26.1889 17.9694 26.1889C12.1412 26.1889 7.21825 22.313 5.63751 16.9981Z" stroke="black" stroke-width="0.25" stroke-miterlimit="10" stroke-linejoin="round"/>
<path d="M17.3669 14.2358C17.3645 14.2628 17.3731 14.2899 17.3902 14.3109C18.4099 15.5575 18.618 16.372 18.618 16.372C18.618 16.372 18.6548 16.5376 18.678 16.5711C18.7156 16.6249 18.7698 16.5842 18.7915 16.5257C18.9968 15.9717 19.0579 15.5327 18.6285 14.7947C18.3813 14.37 17.8503 13.7387 17.3957 14.1745" fill="#707070"/>
<path d="M18.618 16.372C18.618 16.372 18.4099 15.5575 17.3902 14.3109C17.3731 14.2899 17.3645 14.2628 17.3669 14.2358V14.2358C17.369 14.2128 17.379 14.1905 17.3957 14.1745C17.8503 13.7387 18.3813 14.37 18.6285 14.7947C19.0579 15.5327 18.9968 15.9717 18.7915 16.5257C18.7698 16.5842 18.7156 16.6249 18.678 16.5711C18.6548 16.5376 18.618 16.372 18.618 16.372Z" stroke="black" stroke-width="0.25" stroke-miterlimit="10" stroke-linecap="round" stroke-linejoin="round"/>
<path d="M9.12485 9.4326C9.14753 9.38459 9.15098 9.32875 9.12668 9.28153C8.94206 8.92284 8.52407 8.88707 8.14242 8.98078C7.95021 9.02797 7.76473 9.08492 7.5365 9.2222C6.87479 9.62019 6.80372 10.1234 6.90389 10.1785C6.9539 10.2061 7.16854 10.0248 7.54906 9.86324C7.9309 9.70116 8.26487 9.65287 8.9778 9.54231" fill="#707070"/>
<path d="M8.14242 8.98078C8.52407 8.88707 8.94206 8.92284 9.12668 9.28153C9.15098 9.32875 9.14753 9.38459 9.12485 9.4326V9.4326C9.09714 9.49123 9.04188 9.53237 8.9778 9.54231C8.26487 9.65287 7.9309 9.70116 7.54906 9.86324C7.16854 10.0248 6.9539 10.2061 6.90389 10.1785C6.80372 10.1234 6.87479 9.62019 7.5365 9.2222C7.76473 9.08492 7.95021 9.02797 8.14242 8.98078Z" stroke="black" stroke-width="0.25" stroke-miterlimit="10" stroke-linecap="round" stroke-linejoin="round"/>
</g>
<defs>
<clipPath id="clip0_29049_152478">
<rect width="35.4667" height="32" fill="white" transform="translate(0.535156)"/>
</clipPath>
</defs>
</svg>
